# xmcd
#
# Track frame offsets:
#   150
#   12312
#   24470
#   39305
#   51242
#   64587
#   78085
#   93625
#   107855
#   124442
#   136220
#   145815
#   160577
#
# Disc length: 2351 seconds
#
# Revision: 0
# Processed by: cddbd v1.4PL0 Copyright (c) Steve Scherf et al.
# Submitted via: uFREEDB 1.6.0
#
DISCID=a7092d0d
DTITLE=Jose Feliciano - Lo mejor de lo mejor Vol 1
DYEAR=1999
DGENRE=Alternative
TTITLE0=La copa rota
TTITLE1=Escandalo
TTITLE2=Noche de ronda
TTITLE3=Plazos traicioneros
TTITLE4=Una aventura mas
TTITLE5=Celoso
TTITLE6=Moliendo cafe
TTITLE7=Toda una vida
TTITLE8=Luz y sombra
TTITLE9=Camino verde
TTITLE10=Por ella
TTITLE11=Sabor a mi 
TTITLE12=Dos cosas
EXTD=
EXTT0=
EXTT1=
EXTT2=
EXTT3=
EXTT4=
EXTT5=
EXTT6=
EXTT7=
EXTT8=
EXTT9=
EXTT10=
EXTT11=
EXTT12=
PLAYORDER=
